<svg width="48" height="44" viewBox="0 0 48 44" fill="none" xmlns="http://www.w3.org/2000/svg">
<path d="M21.61 -0.000976562C20.722 10.9434 12.5708 15.6945 8.6062 16.702C18.8824 19.12 21.5572 28.9508 21.61 33.564C22.625 22.2378 31.3365 17.6034 35.5653 16.702C27.319 16.702 22.8258 5.56668 21.61 -0.000976562Z" fill="white"/>
<path d="M7.46906 23.5166C6.9983 30.0627 2.67732 32.9044 0.575684 33.507C6.02313 34.9532 7.44104 40.8333 7.46906 43.5926C8.00708 36.8181 12.6251 34.0462 14.8668 33.507C10.4954 33.507 8.11357 26.8467 7.46906 23.5166Z" fill="white"/>
<path d="M39.0002 16.6333C38.4522 24.2527 33.4228 27.5604 30.9766 28.2618C37.3172 29.9451 38.9676 36.7893 39.0002 40.001C39.6264 32.1158 45.0016 28.8893 47.6109 28.2618C42.5228 28.2618 39.7504 20.5095 39.0002 16.6333Z" fill="white"/>
</svg>
