<svg width="38" height="38" viewBox="0 0 38 38" fill="none" xmlns="http://www.w3.org/2000/svg">
<path d="M6.84004 3.04004C4.75041 3.04004 3.04004 4.75041 3.04004 6.84004V31.16C3.04004 33.2497 4.75041 34.96 6.84004 34.96H31.16C33.2497 34.96 34.96 33.2497 34.96 31.16V6.84004C34.96 4.75041 33.2497 3.04004 31.16 3.04004H6.84004ZM6.84004 4.56004H31.16C32.4281 4.56004 33.44 5.57199 33.44 6.84004V31.16C33.44 32.4281 32.4281 33.44 31.16 33.44H6.84004C5.57199 33.44 4.56004 32.4281 4.56004 31.16V6.84004C4.56004 5.57199 5.57199 4.56004 6.84004 4.56004ZM19.8921 8.36004C16.7503 8.36004 16.72 16.166 16.72 16.245C16.72 17.1631 16.7193 17.765 16.7809 18.525C16.3485 18.3753 15.846 18.2801 15.2965 18.2801C12.0696 18.2801 10.64 21.5665 10.64 24.3557C10.64 26.986 12.2021 29.64 15.6943 29.64C17.3413 29.64 18.7341 28.621 19.8536 27.1003C20.8461 28.0731 21.8852 28.1052 22.6635 28.1052C25.1076 28.1052 26.7259 23.6951 27.3081 21.9213C27.4935 21.3536 27.1654 20.7484 26.5733 20.569C25.9866 20.3927 25.3501 20.7049 25.1646 21.2726C24.4768 23.3672 23.7531 25.2928 22.61 25.84C22.211 26.0308 21.5977 25.7823 20.995 24.985C22.3957 22.1525 22.8 18.712 22.8 16.34C22.8 9.70828 21.3833 8.36004 19.8921 8.36004ZM19.9812 10.6757C20.3354 11.1811 20.5542 12.7194 20.5542 16.3386C20.5534 18.2598 20.4625 20.5343 19.7526 22.4898C19.2845 20.969 18.9674 18.918 18.9674 16.2436C18.9674 13.7781 19.5184 11.4668 19.9812 10.6757ZM15.295 20.52C16.2519 20.52 16.9857 21.1345 16.9857 21.1361C17.0405 21.1908 17.1001 21.2382 17.1624 21.28C17.4763 22.7795 17.9594 24.2644 18.4701 25.2151C17.6326 26.5846 16.641 27.36 15.675 27.36C13.1404 27.36 12.92 25.3552 12.92 24.415C12.92 24.2668 12.8737 20.52 15.295 20.52Z" fill="black"/>
</svg>
