<svg width="38" height="38" viewBox="0 0 38 38" fill="none" xmlns="http://www.w3.org/2000/svg">
<g clip-path="url(#clip0_23_8)">
<path fill-rule="evenodd" clip-rule="evenodd" d="M18.9993 0.473454C8.50802 0.473454 0 8.98005 0 19.4727C0 27.8678 5.44338 34.9873 12.9928 37.5007C13.943 37.6767 14.2923 37.0876 14.2923 36.5855C14.2923 36.1325 14.2733 34.6359 14.2656 33.0496C8.97934 34.1991 7.86499 30.8069 7.86499 30.8069C7.00097 28.6104 5.75546 28.0263 5.75546 28.0263C4.03168 26.846 5.88662 26.8719 5.88662 26.8719C7.7941 27.0052 8.79837 28.8286 8.79837 28.8286C10.4941 31.7333 13.2445 30.8925 14.328 30.4078C14.4991 29.1799 14.9901 28.3412 15.5342 27.8664C11.3138 27.3874 6.87753 25.7576 6.87753 18.4768C6.87753 16.4031 7.6209 14.7074 8.83482 13.3777C8.6371 12.8981 7.98629 10.9667 9.01788 8.3502C9.01788 8.3502 10.6133 7.83898 14.2446 10.2977C15.7594 9.87762 17.3842 9.66583 18.9979 9.65883C20.6129 9.66583 22.2406 9.87691 23.7575 10.2977C27.3839 7.84041 28.9779 8.3502 28.9779 8.3502C30.0109 10.9675 29.363 12.9002 29.1652 13.3778C30.3833 14.7074 31.1204 16.4031 31.1204 18.4768C31.1204 25.7744 26.6742 27.3789 22.4447 27.8495C23.1264 28.4386 23.7351 29.5951 23.7351 31.3665C23.7351 33.9073 23.7134 35.955 23.7134 36.5799C23.7134 37.0855 24.0556 37.6767 25.0191 37.4915C32.5643 34.9767 38.0007 27.8565 38.0007 19.4663C38.0007 8.97506 29.4941 0.467041 19.0007 0.467041L18.9993 0.473394L18.9993 0.473454Z" fill="black"/>
</g>
<defs>
<clipPath id="clip0_23_8">
<rect width="38" height="38" fill="white"/>
</clipPath>
</defs>
</svg>
