<svg width="257" height="36" viewBox="0 0 257 36" fill="none" xmlns="http://www.w3.org/2000/svg">
<path d="M1.725 26V7.55H9.35C9.93333 7.55 10.525 7.625 11.125 7.775C11.725 7.90833 12.275 8.18333 12.775 8.6C13.2917 9.01667 13.7 9.63333 14 10.45C14.3167 11.2667 14.475 12.3583 14.475 13.725C14.475 15.0917 14.3167 16.1917 14 17.025C13.6833 17.8583 13.2667 18.5 12.75 18.95C12.25 19.3833 11.7 19.6833 11.1 19.85C10.5167 20 9.95 20.075 9.4 20.075C9.11667 20.075 8.75833 20.0667 8.325 20.05C7.90833 20.0167 7.46667 19.9833 7 19.95C6.55 19.9 6.125 19.8583 5.725 19.825C5.34167 19.775 5.03333 19.7333 4.8 19.7V26H1.725ZM4.8 17.275H8.95C9.43333 17.275 9.85833 17.1667 10.225 16.95C10.5917 16.7167 10.875 16.35 11.075 15.85C11.275 15.3333 11.375 14.6333 11.375 13.75C11.375 12.8833 11.2667 12.2 11.05 11.7C10.85 11.2 10.575 10.85 10.225 10.65C9.89167 10.4333 9.5 10.325 9.05 10.325H4.8V17.275ZM22.3117 26.125C21.2617 26.125 20.3534 26.0167 19.5867 25.8C18.8201 25.5833 18.1951 25.2167 17.7117 24.7C17.2284 24.1833 16.8701 23.4833 16.6367 22.6C16.4034 21.7167 16.2867 20.6083 16.2867 19.275C16.2867 17.8917 16.4034 16.7583 16.6367 15.875C16.8701 14.975 17.2284 14.275 17.7117 13.775C18.2117 13.2583 18.8451 12.9083 19.6117 12.725C20.3784 12.525 21.2784 12.425 22.3117 12.425C23.3784 12.425 24.2951 12.5333 25.0617 12.75C25.8284 12.95 26.4534 13.3 26.9367 13.8C27.4201 14.3 27.7784 15 28.0117 15.9C28.2451 16.7833 28.3617 17.9083 28.3617 19.275C28.3617 20.625 28.2451 21.75 28.0117 22.65C27.7951 23.5333 27.4451 24.2333 26.9617 24.75C26.4784 25.25 25.8534 25.6083 25.0867 25.825C24.3201 26.025 23.3951 26.125 22.3117 26.125ZM22.3117 23.65C22.8284 23.65 23.2701 23.6083 23.6367 23.525C24.0034 23.425 24.3034 23.2333 24.5367 22.95C24.7867 22.65 24.9701 22.2083 25.0867 21.625C25.2034 21.025 25.2617 20.2333 25.2617 19.25C25.2617 18.2833 25.2034 17.5083 25.0867 16.925C24.9701 16.3417 24.7867 15.9083 24.5367 15.625C24.3034 15.325 24.0034 15.1333 23.6367 15.05C23.2701 14.95 22.8284 14.9 22.3117 14.9C21.8117 14.9 21.3784 14.95 21.0117 15.05C20.6451 15.1333 20.3451 15.325 20.1117 15.625C19.8784 15.9083 19.6951 16.3417 19.5617 16.925C19.4451 17.5083 19.3867 18.2833 19.3867 19.25C19.3867 20.2333 19.4451 21.025 19.5617 21.625C19.6951 22.2083 19.8784 22.65 20.1117 22.95C20.3451 23.2333 20.6451 23.425 21.0117 23.525C21.3784 23.6083 21.8117 23.65 22.3117 23.65ZM31.116 26V12.6H33.516L34.216 14.75C34.7493 14.1 35.341 13.55 35.991 13.1C36.641 12.65 37.416 12.425 38.316 12.425C38.4993 12.425 38.691 12.4417 38.891 12.475C39.091 12.4917 39.2743 12.525 39.441 12.575V15.725C39.2077 15.6917 38.9577 15.6667 38.691 15.65C38.4243 15.6333 38.166 15.625 37.916 15.625C37.3993 15.625 36.9243 15.6833 36.491 15.8C36.0743 15.9167 35.6827 16.1 35.316 16.35C34.9493 16.5833 34.5827 16.8833 34.216 17.25V26H31.116ZM46.7088 26C45.7421 26 44.9505 25.8583 44.3338 25.575C43.7171 25.275 43.2671 24.7833 42.9838 24.1C42.7171 23.4167 42.5921 22.5167 42.6088 21.4L42.7088 15.1H40.6088V13.1L42.8088 12.6L43.2588 8.85H45.6838V12.6H49.0838V15.1H45.6838V21.375C45.6838 21.8083 45.7255 22.1667 45.8088 22.45C45.8921 22.7167 46.0088 22.9333 46.1588 23.1C46.3255 23.25 46.5005 23.3583 46.6838 23.425C46.8671 23.4917 47.0588 23.5333 47.2588 23.55L48.9338 23.725V26H46.7088ZM52.2303 26V15.1H50.2803V13.1L52.2303 12.6V11.475C52.2303 10.4083 52.3636 9.53333 52.6303 8.85C52.9136 8.15 53.3636 7.63333 53.9803 7.3C54.6136 6.95 55.4469 6.775 56.4803 6.775C57.0636 6.775 57.5803 6.81667 58.0303 6.9C58.4803 6.96667 58.8636 7.03333 59.1803 7.1V9.3H57.0553C56.6053 9.3 56.2553 9.375 56.0053 9.525C55.7553 9.675 55.5803 9.9 55.4803 10.2C55.3803 10.4833 55.3303 10.8583 55.3303 11.325V12.6H59.0053V15.1H55.3303V26H52.2303ZM66.55 26.125C65.5 26.125 64.5917 26.0167 63.825 25.8C63.0583 25.5833 62.4333 25.2167 61.95 24.7C61.4667 24.1833 61.1083 23.4833 60.875 22.6C60.6417 21.7167 60.525 20.6083 60.525 19.275C60.525 17.8917 60.6417 16.7583 60.875 15.875C61.1083 14.975 61.4667 14.275 61.95 13.775C62.45 13.2583 63.0833 12.9083 63.85 12.725C64.6167 12.525 65.5167 12.425 66.55 12.425C67.6167 12.425 68.5333 12.5333 69.3 12.75C70.0667 12.95 70.6917 13.3 71.175 13.8C71.6583 14.3 72.0167 15 72.25 15.9C72.4833 16.7833 72.6 17.9083 72.6 19.275C72.6 20.625 72.4833 21.75 72.25 22.65C72.0333 23.5333 71.6833 24.2333 71.2 24.75C70.7167 25.25 70.0917 25.6083 69.325 25.825C68.5583 26.025 67.6333 26.125 66.55 26.125ZM66.55 23.65C67.0667 23.65 67.5083 23.6083 67.875 23.525C68.2417 23.425 68.5417 23.2333 68.775 22.95C69.025 22.65 69.2083 22.2083 69.325 21.625C69.4417 21.025 69.5 20.2333 69.5 19.25C69.5 18.2833 69.4417 17.5083 69.325 16.925C69.2083 16.3417 69.025 15.9083 68.775 15.625C68.5417 15.325 68.2417 15.1333 67.875 15.05C67.5083 14.95 67.0667 14.9 66.55 14.9C66.05 14.9 65.6167 14.95 65.25 15.05C64.8833 15.1333 64.5833 15.325 64.35 15.625C64.1167 15.9083 63.9333 16.3417 63.8 16.925C63.6833 17.5083 63.625 18.2833 63.625 19.25C63.625 20.2333 63.6833 21.025 63.8 21.625C63.9333 22.2083 64.1167 22.65 64.35 22.95C64.5833 23.2333 64.8833 23.425 65.25 23.525C65.6167 23.6083 66.05 23.65 66.55 23.65ZM79.3293 26.05C78.446 26.05 77.7043 25.9 77.1043 25.6C76.521 25.3 76.0793 24.8333 75.7793 24.2C75.496 23.5667 75.3543 22.725 75.3543 21.675V6.925H78.4543V21.25C78.4543 21.85 78.5126 22.3167 78.6293 22.65C78.7626 22.9833 78.946 23.225 79.1793 23.375C79.4126 23.5083 79.696 23.6 80.0293 23.65L81.1543 23.8V26.05H79.3293ZM83.3959 10.475C83.0792 10.475 82.9209 10.325 82.9209 10.025V7.75C82.9209 7.41667 83.0792 7.25 83.3959 7.25H85.7459C85.8959 7.25 86.0042 7.3 86.0709 7.4C86.1542 7.5 86.1959 7.61667 86.1959 7.75V10.025C86.1959 10.325 86.0459 10.475 85.7459 10.475H83.3959ZM82.9959 26V12.6H86.0959V26H82.9959ZM94.8703 26.125C93.8203 26.125 92.912 26.0167 92.1453 25.8C91.3786 25.5833 90.7536 25.2167 90.2703 24.7C89.787 24.1833 89.4286 23.4833 89.1953 22.6C88.962 21.7167 88.8453 20.6083 88.8453 19.275C88.8453 17.8917 88.962 16.7583 89.1953 15.875C89.4286 14.975 89.787 14.275 90.2703 13.775C90.7703 13.2583 91.4036 12.9083 92.1703 12.725C92.937 12.525 93.837 12.425 94.8703 12.425C95.937 12.425 96.8536 12.5333 97.6203 12.75C98.387 12.95 99.012 13.3 99.4953 13.8C99.9786 14.3 100.337 15 100.57 15.9C100.804 16.7833 100.92 17.9083 100.92 19.275C100.92 20.625 100.804 21.75 100.57 22.65C100.354 23.5333 100.004 24.2333 99.5203 24.75C99.037 25.25 98.412 25.6083 97.6453 25.825C96.8786 26.025 95.9536 26.125 94.8703 26.125ZM94.8703 23.65C95.387 23.65 95.8286 23.6083 96.1953 23.525C96.562 23.425 96.862 23.2333 97.0953 22.95C97.3453 22.65 97.5286 22.2083 97.6453 21.625C97.762 21.025 97.8203 20.2333 97.8203 19.25C97.8203 18.2833 97.762 17.5083 97.6453 16.925C97.5286 16.3417 97.3453 15.9083 97.0953 15.625C96.862 15.325 96.562 15.1333 96.1953 15.05C95.8286 14.95 95.387 14.9 94.8703 14.9C94.3703 14.9 93.937 14.95 93.5703 15.05C93.2036 15.1333 92.9036 15.325 92.6703 15.625C92.437 15.9083 92.2536 16.3417 92.1203 16.925C92.0036 17.5083 91.9453 18.2833 91.9453 19.25C91.9453 20.2333 92.0036 21.025 92.1203 21.625C92.2536 22.2083 92.437 22.65 92.6703 22.95C92.9036 23.2333 93.2036 23.425 93.5703 23.525C93.937 23.6083 94.3703 23.65 94.8703 23.65Z" fill="white"/>
<path d="M132.45 26V15.1H130.5V13.1L132.45 12.6V11.475C132.45 10.4083 132.583 9.53333 132.85 8.85C133.133 8.15 133.583 7.63333 134.2 7.3C134.833 6.95 135.667 6.775 136.7 6.775C137.283 6.775 137.8 6.81667 138.25 6.9C138.7 6.96667 139.083 7.03333 139.4 7.1V9.3H137.275C136.825 9.3 136.475 9.375 136.225 9.525C135.975 9.675 135.8 9.9 135.7 10.2C135.6 10.4833 135.55 10.8583 135.55 11.325V12.6H139.225V15.1H135.55V26H132.45ZM147.863 26V7.55H154.913C156.646 7.55 157.929 7.95833 158.763 8.775C159.596 9.59167 160.013 10.7833 160.013 12.35C160.013 13.0833 159.896 13.7333 159.663 14.3C159.446 14.85 159.146 15.3083 158.763 15.675C158.379 16.025 157.929 16.2667 157.413 16.4C157.796 16.5 158.171 16.6583 158.538 16.875C158.921 17.075 159.271 17.3583 159.588 17.725C159.904 18.0917 160.154 18.5417 160.338 19.075C160.521 19.5917 160.613 20.2 160.613 20.9C160.613 22.1667 160.396 23.175 159.963 23.925C159.546 24.6583 158.929 25.1917 158.113 25.525C157.313 25.8417 156.346 26 155.213 26H147.863ZM150.938 23.225H155.113C155.629 23.225 156.079 23.1333 156.463 22.95C156.846 22.7667 157.138 22.475 157.338 22.075C157.554 21.6583 157.663 21.0917 157.663 20.375C157.663 19.8083 157.554 19.3333 157.338 18.95C157.121 18.5667 156.821 18.275 156.438 18.075C156.054 17.8583 155.613 17.75 155.113 17.75H150.938V23.225ZM150.938 15.35H154.963C155.579 15.35 156.079 15.125 156.463 14.675C156.846 14.2083 157.046 13.6 157.063 12.85C157.079 11.9 156.871 11.2417 156.438 10.875C156.021 10.5083 155.504 10.325 154.888 10.325H150.938V15.35ZM168.666 26.125C167.216 26.125 166.058 25.925 165.191 25.525C164.341 25.125 163.725 24.4333 163.341 23.45C162.958 22.45 162.766 21.0667 162.766 19.3C162.766 17.5 162.95 16.1083 163.316 15.125C163.683 14.125 164.291 13.425 165.141 13.025C165.991 12.625 167.141 12.425 168.591 12.425C169.875 12.425 170.9 12.5583 171.666 12.825C172.45 13.075 173.016 13.5333 173.366 14.2C173.733 14.85 173.916 15.775 173.916 16.975C173.916 17.825 173.75 18.5083 173.416 19.025C173.083 19.525 172.6 19.8833 171.966 20.1C171.35 20.3167 170.616 20.425 169.766 20.425H165.841C165.875 21.2583 165.983 21.925 166.166 22.425C166.366 22.9083 166.716 23.2583 167.216 23.475C167.733 23.6917 168.483 23.8 169.466 23.8H173.516V25.625C172.833 25.7583 172.108 25.875 171.341 25.975C170.591 26.075 169.7 26.125 168.666 26.125ZM165.816 18.55H169.466C170.05 18.55 170.475 18.4417 170.741 18.225C171.025 17.9917 171.166 17.575 171.166 16.975C171.166 16.3917 171.083 15.9333 170.916 15.6C170.75 15.2667 170.475 15.0333 170.091 14.9C169.708 14.75 169.208 14.675 168.591 14.675C167.891 14.675 167.341 14.7833 166.941 15C166.541 15.2167 166.25 15.6083 166.066 16.175C165.9 16.725 165.816 17.5167 165.816 18.55ZM180.424 31.925L181.974 26C181.324 26 180.732 25.875 180.199 25.625C179.682 25.375 179.24 25 178.874 24.5C178.507 24 178.207 23.3583 177.974 22.575L175.224 12.6H178.424L180.849 21.95C180.965 22.3333 181.107 22.625 181.274 22.825C181.44 23.025 181.607 23.175 181.774 23.275C181.94 23.3583 182.09 23.4083 182.224 23.425C182.374 23.4417 182.474 23.45 182.524 23.45L185.299 12.6H188.449L184.149 29.45L182.949 31.925H180.424ZM195.263 26C194.297 26 193.505 25.8583 192.888 25.575C192.272 25.275 191.822 24.7833 191.538 24.1C191.272 23.4167 191.147 22.5167 191.163 21.4L191.263 15.1H189.163V13.1L191.363 12.6L191.813 8.85H194.238V12.6H197.638V15.1H194.238V21.375C194.238 21.8083 194.28 22.1667 194.363 22.45C194.447 22.7167 194.563 22.9333 194.713 23.1C194.88 23.25 195.055 23.3583 195.238 23.425C195.422 23.4917 195.613 23.5333 195.813 23.55L197.488 23.725V26H195.263ZM203.785 26.15C202.552 26.15 201.593 25.8083 200.91 25.125C200.227 24.425 199.885 23.4083 199.885 22.075V12.6H202.985V21.175C202.985 22.0583 203.185 22.65 203.585 22.95C204.002 23.25 204.56 23.4 205.26 23.4C205.843 23.4 206.41 23.3083 206.96 23.125C207.51 22.9417 208.027 22.675 208.51 22.325V12.6H211.61V26H209.085L208.51 24.6C207.877 25 207.152 25.3583 206.335 25.675C205.535 25.9917 204.685 26.15 203.785 26.15ZM218.704 26.05C217.821 26.05 217.079 25.9 216.479 25.6C215.896 25.3 215.454 24.8333 215.154 24.2C214.871 23.5667 214.729 22.725 214.729 21.675V6.925H217.829V21.25C217.829 21.85 217.888 22.3167 218.004 22.65C218.138 22.9833 218.321 23.225 218.554 23.375C218.788 23.5083 219.071 23.6 219.404 23.65L220.529 23.8V26.05H218.704ZM226.346 26.05C225.463 26.05 224.721 25.9 224.121 25.6C223.538 25.3 223.096 24.8333 222.796 24.2C222.513 23.5667 222.371 22.725 222.371 21.675V6.925H225.471V21.25C225.471 21.85 225.529 22.3167 225.646 22.65C225.779 22.9833 225.963 23.225 226.196 23.375C226.429 23.5083 226.713 23.6 227.046 23.65L228.171 23.8V26.05H226.346ZM232.788 26.15C231.788 26.15 230.971 25.85 230.338 25.25C229.704 24.65 229.388 23.825 229.388 22.775V21.65C229.388 20.6167 229.738 19.775 230.438 19.125C231.154 18.475 232.246 18.15 233.713 18.15H237.538V16.975C237.538 16.5083 237.454 16.1167 237.288 15.8C237.121 15.4833 236.821 15.25 236.388 15.1C235.954 14.9333 235.296 14.85 234.413 14.85H230.363V13.05C230.979 12.8833 231.704 12.7417 232.538 12.625C233.371 12.4917 234.363 12.425 235.513 12.425C236.613 12.4083 237.546 12.5417 238.313 12.825C239.079 13.0917 239.654 13.5417 240.038 14.175C240.438 14.8083 240.638 15.675 240.638 16.775V26H238.213L237.688 24.55C237.571 24.65 237.363 24.7833 237.063 24.95C236.763 25.1167 236.388 25.3 235.938 25.5C235.488 25.6833 234.988 25.8417 234.438 25.975C233.904 26.0917 233.354 26.15 232.788 26.15ZM234.288 23.975C234.504 23.975 234.746 23.95 235.013 23.9C235.296 23.8333 235.579 23.7667 235.863 23.7C236.146 23.6167 236.404 23.5417 236.638 23.475C236.888 23.3917 237.088 23.3167 237.238 23.25C237.404 23.1833 237.504 23.1417 237.538 23.125V19.625L234.638 19.775C233.871 19.8417 233.313 20.0417 232.963 20.375C232.629 20.7083 232.463 21.15 232.463 21.7V22.25C232.463 22.6667 232.546 23.0083 232.713 23.275C232.896 23.525 233.121 23.7 233.388 23.8C233.671 23.9 233.971 23.9583 234.288 23.975ZM243.709 26V6.95H246.809V14C247.342 13.6 248.009 13.2333 248.809 12.9C249.625 12.55 250.459 12.375 251.309 12.375C252.292 12.375 253.084 12.575 253.684 12.975C254.3 13.375 254.742 13.9333 255.009 14.65C255.292 15.35 255.434 16.15 255.434 17.05V26H252.334V17.425C252.334 16.9583 252.242 16.5583 252.059 16.225C251.875 15.875 251.617 15.6167 251.284 15.45C250.95 15.2667 250.559 15.175 250.109 15.175C249.675 15.175 249.275 15.225 248.909 15.325C248.542 15.4083 248.184 15.5333 247.834 15.7C247.5 15.8667 247.159 16.0583 246.809 16.275V26H243.709Z" fill="white"/>
<path d="M119.32 9C114.725 9 111 12.7249 111 17.3198C111 21.9148 114.725 25.6396 119.32 25.6396C123.915 25.6396 127.64 21.9148 127.64 17.3198C127.64 12.7249 123.915 9 119.32 9Z" fill="#65CBB5"/>
<path fill-rule="evenodd" clip-rule="evenodd" d="M109 16.8325C109 11.4021 113.402 7 118.833 7C124.263 7 128.665 11.4021 128.665 16.8325C128.665 22.2629 124.263 26.665 118.833 26.665C113.402 26.665 109 22.2629 109 16.8325ZM118.833 10.0254C115.073 10.0254 112.025 13.073 112.025 16.8325C112.025 20.592 115.073 23.6396 118.833 23.6396C122.592 23.6396 125.64 20.592 125.64 16.8325C125.64 13.073 122.592 10.0254 118.833 10.0254Z" fill="white"/>
</svg>
