<svg width="40" height="30" viewBox="0 0 40 30" fill="none" xmlns="http://www.w3.org/2000/svg">
<path d="M38.6061 10.5716L36.7216 9.53518L19.7618 0.113065H19.5546C19.439 0.0642187 19.3191 0.0263631 19.1965 0H18.8385H18.4993C18.3705 0.0263805 18.2444 0.0642195 18.1224 0.113065H17.9151L0.955305 9.53518C0.665296 9.69953 0.424074 9.93787 0.256249 10.2259C0.088423 10.5139 0 10.8413 0 11.1746C0 11.508 0.088423 11.8353 0.256249 12.1234C0.424074 12.4114 0.665296 12.6497 0.955305 12.8141L5.64752 15.4146V24.3467C5.64752 25.8461 6.24313 27.284 7.30332 28.3442C8.36351 29.4044 9.80144 30 11.3008 30H26.3762C27.8755 30 29.3134 29.4044 30.3736 28.3442C31.4338 27.284 32.0294 25.8461 32.0294 24.3467V15.4146L35.7983 13.304V18.6935C35.7983 19.1932 35.9968 19.6726 36.3502 20.026C36.7036 20.3794 37.1829 20.5779 37.6827 20.5779C38.1825 20.5779 38.6618 20.3794 39.0152 20.026C39.3686 19.6726 39.5671 19.1932 39.5671 18.6935V12.2111C39.5665 11.8771 39.4773 11.5494 39.3084 11.2613C39.1395 10.9732 38.8971 10.7352 38.6061 10.5716ZM28.2606 24.3467C28.2606 24.8465 28.062 25.3258 27.7086 25.6792C27.3552 26.0326 26.8759 26.2312 26.3762 26.2312H11.3008C10.801 26.2312 10.3217 26.0326 9.9683 25.6792C9.6149 25.3258 9.41636 24.8465 9.41636 24.3467V17.5063L17.9151 22.2173L18.1978 22.3304H18.3674C18.5238 22.3501 18.6821 22.3501 18.8385 22.3304C18.9949 22.3501 19.1532 22.3501 19.3096 22.3304H19.4792C19.5792 22.3093 19.6748 22.2711 19.7618 22.2173L28.2606 17.5063V24.3467ZM18.8385 18.4296L5.76058 11.1558L18.8385 3.88191L31.9164 11.1558L18.8385 18.4296Z" fill="black"/>
</svg>
