<svg id="Calque_1" data-name="Calque 1" xmlns="http://www.w3.org/2000/svg" viewBox="0 0 506 300"><defs><style>.cls-1{fill:#fead0a;}.cls-2{fill:#333;}.cls-3{fill:none;}.cls-4{fill:#fff;}.cls-5{fill:#f5191a;}.cls-6{fill:#f60e0f;}.cls-7{fill:#f50e0f;}.cls-8{fill:#fdb016;}</style></defs><circle class="cls-1" cx="253" cy="150" r="150"/><circle class="cls-2" cx="253" cy="150" r="139"/><rect class="cls-1" y="143" width="109" height="15"/><rect class="cls-1" x="397" y="143" width="109" height="15"/><rect class="cls-3" x="190" y="31" width="126" height="151.9"/><path class="cls-1" d="M179.74,315.86h-6.63a8.1,8.1,0,0,1-.54,2.71,5.73,5.73,0,0,1-1.22,1.89,4.74,4.74,0,0,1-1.76,1.08,6.33,6.33,0,0,1-2.3.27,6.7,6.7,0,0,1-1.76-.27,7.22,7.22,0,0,1-1.49-.67,4.15,4.15,0,0,1-1.08-1.09,14.09,14.09,0,0,1-.81-1.48,15.11,15.11,0,0,1-.68-2.85,29.8,29.8,0,0,1-.27-3.65v-4.74a18.44,18.44,0,0,1,.14-2.84c.13-1,.27-1.76.4-2.44a9.94,9.94,0,0,1,1.09-2.43,6.13,6.13,0,0,1,1.62-1.63,5,5,0,0,1,1.22-.54,5.27,5.27,0,0,1,1.49-.13,7.91,7.91,0,0,1,2.57.4,5.5,5.5,0,0,1,1.76,1.09,8.69,8.69,0,0,1,1.08,1.89,13.23,13.23,0,0,1,.54,2.71h6.63a18.07,18.07,0,0,0-1.08-4.87,10.17,10.17,0,0,0-2.44-3.66,11.79,11.79,0,0,0-3.78-2.3,14.47,14.47,0,0,0-5-.81,11.32,11.32,0,0,0-3.66.54,12.85,12.85,0,0,0-3.11,1.35,13.15,13.15,0,0,0-2.84,2.57,14.9,14.9,0,0,0-3,7,18.58,18.58,0,0,0-.27,3.93v4.6a21,21,0,0,0,.41,4.19,22.73,22.73,0,0,0,1.08,3.66,15.83,15.83,0,0,0,1.76,3,8,8,0,0,0,2.43,2.3,11.71,11.71,0,0,0,7.18,2.16,15,15,0,0,0,5-.81,10.44,10.44,0,0,0,3.78-2.3,11.3,11.3,0,0,0,2.58-3.52A15.94,15.94,0,0,0,179.74,315.86Zm28,10.83V292h-6.63v14.21h-9.75V292h-6.63v34.65h6.63v-15h9.75v15ZM215.61,292v5.41h6.63v23.82h-6.63v5.42h20v-5.42h-6.77V297.45h6.77V292Zm51.83,23.82h-6.63a8.1,8.1,0,0,1-.54,2.71,5.57,5.57,0,0,1-1.22,1.89,4.74,4.74,0,0,1-1.76,1.08,6.3,6.3,0,0,1-2.3.27,6.77,6.77,0,0,1-1.76-.27,6.92,6.92,0,0,1-1.48-.67,4,4,0,0,1-1.09-1.09,14.09,14.09,0,0,1-.81-1.48,15.11,15.11,0,0,1-.68-2.85,29.8,29.8,0,0,1-.27-3.65v-4.74a18.44,18.44,0,0,1,.14-2.84c.13-1,.27-1.76.4-2.44a10.33,10.33,0,0,1,1.09-2.43,6.13,6.13,0,0,1,1.62-1.63,5,5,0,0,1,1.22-.54,5.3,5.3,0,0,1,1.49-.13,7.87,7.87,0,0,1,2.57.4,5.5,5.5,0,0,1,1.76,1.09,8.3,8.3,0,0,1,1.08,1.89,13.23,13.23,0,0,1,.54,2.71h6.63a18.07,18.07,0,0,0-1.08-4.87,10.28,10.28,0,0,0-2.43-3.66,11.84,11.84,0,0,0-3.79-2.3,14.47,14.47,0,0,0-5-.81,10.82,10.82,0,0,0-3.66.54,12.85,12.85,0,0,0-3.11,1.35,13.15,13.15,0,0,0-2.84,2.57,14.9,14.9,0,0,0-3,7,18.58,18.58,0,0,0-.27,3.93v4.6a21,21,0,0,0,.41,4.19,22.73,22.73,0,0,0,1.08,3.66,15.83,15.83,0,0,0,1.76,3,8,8,0,0,0,2.44,2.3,11.65,11.65,0,0,0,7.17,2.16,15,15,0,0,0,5-.81,10.49,10.49,0,0,0,3.79-2.3,11.43,11.43,0,0,0,2.57-3.52A9.78,9.78,0,0,0,267.44,315.86ZM283,312.48l8.53,14.21h8l-12-19.36L299.11,292H291l-8.52,11.64-3.12,4.19V292h-6.76v34.65h6.76V316.54Zm40.33-1v-5.28H309.13v-8.8h16.51V292H302.36v34.65h23.28v-5.42H309v-9.74Zm30.72,15.16V292H347.3v22.2L337.69,292h-6.77v34.65h6.77V304.36l9.74,22.33Z" transform="translate(0 -92)"/><path class="cls-4" d="M232.5,351.9h-4.9a5.92,5.92,0,0,1-.4,2,4.19,4.19,0,0,1-.9,1.4,3.53,3.53,0,0,1-1.3.8,4.68,4.68,0,0,1-1.7.2,5.07,5.07,0,0,1-1.3-.2,5.36,5.36,0,0,1-1.1-.5,3,3,0,0,1-.8-.8,6.45,6.45,0,0,1-1.1-3.2,21.3,21.3,0,0,1-.2-2.7v-3.5a14.08,14.08,0,0,1,.1-2.1q.15-1.05.3-1.8a7.5,7.5,0,0,1,.8-1.8,4.56,4.56,0,0,1,1.2-1.2,3.55,3.55,0,0,1,.9-.4,3.75,3.75,0,0,1,1.1-.1,5.82,5.82,0,0,1,1.9.3,4.11,4.11,0,0,1,1.3.8,6.38,6.38,0,0,1,.8,1.4,10.08,10.08,0,0,1,.4,2h4.9a13.54,13.54,0,0,0-.8-3.6,7.52,7.52,0,0,0-1.8-2.7,8.75,8.75,0,0,0-2.8-1.7,10.64,10.64,0,0,0-3.7-.6,8.42,8.42,0,0,0-2.7.4,8.24,8.24,0,0,0-4.4,2.9,11,11,0,0,0-2.2,5.2,13.68,13.68,0,0,0-.2,2.9v3.4a15.53,15.53,0,0,0,.3,3.1,17.31,17.31,0,0,0,.8,2.7,11.61,11.61,0,0,0,1.3,2.2,5.81,5.81,0,0,0,1.8,1.7,9,9,0,0,0,2.4,1.2,9.25,9.25,0,0,0,2.9.4,11,11,0,0,0,3.7-.6,7.78,7.78,0,0,0,2.8-1.7,8.32,8.32,0,0,0,1.9-2.6A11.77,11.77,0,0,0,232.5,351.9Zm4.9-17.6v4h4.9v17.6h-4.9v4h14.8v-4h-5V338.3h5v-4Zm39.4,4v-4H256.2v4H264v21.6h5V338.3Zm11.5,7.8-5-11.8h-5.4l7.9,16.5v9.1h4.9V351l8.1-16.7h-5.4Z" transform="translate(0 -92)"/><path class="cls-5" d="M226.15,217.1c-.1-.36-.29-.73.16-1a1,1,0,0,1,1.1,0c.06,0,.11.09.17.12,1.5.74,1.52.74,1.52-.9,0-.74.7-1.46.05-2.23-.09-.11.09-.33.26-.41a.43.43,0,0,1,.47.15l2.38,2.38c.27.27.12.47,0,.74a2.9,2.9,0,0,1-2.58,1.5c-.4,0-.85-.16-1.18.23l-.63-.05c-.11-.46-.32-.52-.64-.16A2,2,0,0,1,226.15,217.1Zm3.54-.27c0,.06-.09.13-.07.18s.11.05.17.08.08-.13.06-.17S229.75,216.86,229.69,216.83Z" transform="translate(0 -92)"/><path class="cls-5" d="M250.69,161.7c-.85-.2-1.29-1.1-2.27-1.23-.52-.07-.49-.95-.41-1.44s.51-.09.8-.08c.64,0,1.05,0,.9.86-.05.31.44.74.91.74.85,0,.91.41.67,1.07Z" transform="translate(0 -92)"/><path class="cls-1" d="M241.58,168.8c-.82-.35-1.79,0-2.57-.48a3.74,3.74,0,0,1,1.05-1A6.15,6.15,0,0,1,241.58,168.8Z" transform="translate(0 -92)"/><path class="cls-1" d="M238.4,170.71c-.44,0-.5-.42-.67-.71,0-.35.29-.54.5-.76A1,1,0,0,1,238.4,170.71Z" transform="translate(0 -92)"/><path class="cls-6" d="M287.83,120.43h-.65l.05-.84C287.71,119.68,287.76,120.06,287.83,120.43Z" transform="translate(0 -92)"/><path class="cls-7" d="M227.2,217.41c.32-.36.53-.3.64.16A.75.75,0,0,1,227.2,217.41Z" transform="translate(0 -92)"/><path class="cls-7" d="M237.65,180.56l-.19-.29a.22.22,0,0,1,.32.14Z" transform="translate(0 -92)"/><path class="cls-6" d="M287.13,121.05c.2.11.15.17,0,.2Z" transform="translate(0 -92)"/><path class="cls-8" d="M299.49,233.9c-.25-8.85-2.41-17.31-5.45-25.56a88.82,88.82,0,0,0-5.5-12.42A15,15,0,0,0,287,193a80.55,80.55,0,0,0-6.76-10.66,55.19,55.19,0,0,0-6.58-7.66,12.91,12.91,0,0,0-2.23-2.14c-4.55-4.19-9.67-7.33-15.81-8.54a19.58,19.58,0,0,0-9.88.26,11.91,11.91,0,0,0-5.7,3,6.15,6.15,0,0,1,1.52,1.49c-.82-.35-1.79,0-2.57-.48a2.32,2.32,0,0,0-.78.92,1,1,0,0,1,.18,1.47c-.45,0-.51-.42-.68-.71-1.16,1.53-1.24,3.32-1.25,5.13-.59-1.69-.07-3.33.39-5A33,33,0,0,0,218,177.38a2.92,2.92,0,0,0,1,0,36.62,36.62,0,0,1,11.35-.13c4.8.77,9.06,2.59,12.18,6.5,3,3.72,4,8.1,3.9,12.75a43.51,43.51,0,0,1-6.69,21.71c-3.56,5.93-7.83,11.35-11.91,16.91a107.27,107.27,0,0,0-10.46,16.57c-4.78,9.88-6,20.11-3,30.76.11.35.06.82.51,1.07a25.14,25.14,0,0,1,10.45-14.66,26.36,26.36,0,0,1,14-4.13c6.92-.26,13.74.95,20.6,1.54,6.09.53,12.16.73,18.16-.75,8.67-2.13,15.23-6.92,18.8-15.31A38.22,38.22,0,0,0,299.49,233.9Zm-60.28,11.55h0Z" transform="translate(0 -92)"/><path class="cls-8" d="M216.47,262.85c.24.58,1.31,0,1.27,1.08,0,.51.44.85,1,1,.32.07.82,0,.6.54-.14.39-.61.73-.91.47-.84-.73-2.06-1.09-2.46-2.29C215.77,263.16,216.1,263,216.47,262.85Z" transform="translate(0 -92)"/><path class="cls-5" d="M234.6,213.17a1.49,1.49,0,0,1-1.67,1.47,2,2,0,0,1-1.64-1.5,1.83,1.83,0,0,1,1.63-1.67A1.62,1.62,0,0,1,234.6,213.17Z" transform="translate(0 -92)"/><path class="cls-5" d="M305.25,133.81c-1.82-9.21-7-16.1-14.75-21.21a23.51,23.51,0,0,0-3.59-2,64.47,64.47,0,0,1,.36,8.37c0,.21,0,.43,0,.64.48.09.53.47.6.84h-.65c0,.21,0,.41-.05.62.2.11.15.17,0,.2,0,.29,0,.59-.08.88-.07.47-.14.94-.22,1.41a10.05,10.05,0,0,0-.43,2.17,13.2,13.2,0,0,1-2.16,4.73c-1,1.17-2.16,1.88-3.76,1.35a7.67,7.67,0,0,1-2.08-2.13c-3.2-6.8-8.05-11.65-15.8-13.3.15.4.23.63.31.85A31.31,31.31,0,0,1,265,129.09a15.79,15.79,0,0,1-.43,3.87q-.93,3.54-4,1.56a15.15,15.15,0,0,1-1.72-1.39,20.25,20.25,0,0,0-6.69-4.13,13.26,13.26,0,0,0-6.86-.75,13.47,13.47,0,0,1,4,6.05,21.92,21.92,0,0,1,1.34,7.86c0,2.17-1,2.72-2.9,1.77a15.72,15.72,0,0,1-1.81-1.08,16.23,16.23,0,0,0-8.1-2.73,12.52,12.52,0,0,0-5.14.62l.39.23c4.69,2.26,5.42,7.12,5,10.59-.11,1.08-.65,1.47-1.73,1.4-.69-.05-1.38-.23-2.08-.33a6.06,6.06,0,0,0-6.65,3.2,9.43,9.43,0,0,0,.77,9.82c1.93,2.95,4.83,4,8.28,3.85a1,1,0,0,0,.88-.46,18.28,18.28,0,0,1,9.09-6.54l2.24-.52a57.2,57.2,0,0,1,6.36-.28c4,0,8.93.38,11.79.72a66.83,66.83,0,0,0,14.62.67c5.93-.58,11.41-2.35,16-6.29a22.19,22.19,0,0,0,7.85-15.24l.07-1.05A19.59,19.59,0,0,0,305.25,133.81ZM271,141.11a2.3,2.3,0,0,0-.84.09,2.3,2.3,0,0,1,.84-.09.91.91,0,0,0,.37,0A.91.91,0,0,1,271,141.11Zm4.14-6.53c.47,0,.68.17.63.64A1.35,1.35,0,0,1,275.16,134.58ZM297.69,150a2.24,2.24,0,0,0-.93.07,2.24,2.24,0,0,1,.93-.07h0Z" transform="translate(0 -92)"/><path class="cls-5" d="M237.78,180.41l-.13.15c1.54,2,1.62,3.59.28,5.7a14.41,14.41,0,0,1-2.48,2.86,65.11,65.11,0,0,1-5.42,4.37,28.49,28.49,0,0,0-5.74,5.55,16,16,0,0,0-3.51,9c-.19,4.14,1.91,7.71,5.37,9.07-.1-.36-.29-.73.16-1a1,1,0,0,1,1.1,0c.06,0,.11.09.17.12,1.5.74,1.52.74,1.52-.9,0-.74.7-1.46.05-2.23-.09-.11.09-.33.26-.41a.43.43,0,0,1,.47.15l2.38,2.38c.27.27.12.47,0,.74a2.9,2.9,0,0,1-2.58,1.5c-.4,0-.85-.16-1.18.23a10.66,10.66,0,0,0,8.32-2.53,20.69,20.69,0,0,0,6.88-10.38,1.31,1.31,0,0,0,.25-.83,22.89,22.89,0,0,0,1.13-7.56,21.81,21.81,0,0,0-2.24-10.71A11.36,11.36,0,0,0,237.78,180.41Zm-4.85,34.23a2,2,0,0,1-1.64-1.5,1.83,1.83,0,0,1,1.63-1.67,1.62,1.62,0,0,1,1.68,1.7A1.49,1.49,0,0,1,232.93,214.64Z" transform="translate(0 -92)"/><path class="cls-6" d="M275.79,135.22a1.35,1.35,0,0,1-.63-.64C275.63,134.54,275.84,134.75,275.79,135.22Z" transform="translate(0 -92)"/><path class="cls-7" d="M229.69,216.83c.06,0,.15,0,.16.09s0,.11-.06.17-.15,0-.17-.08S229.66,216.89,229.69,216.83Z" transform="translate(0 -92)"/></svg>